<svg id="wave" style="transform:rotate(0deg); transition: 0.3s" viewBox="0 0 1440 490" version="1.1" xmlns="http://www.w3.org/2000/svg"><defs><linearGradient id="sw-gradient-0" x1="0" x2="0" y1="1" y2="0"><stop stop-color="rgba(51, 171, 95, 1)" offset="0%"></stop><stop stop-color="rgba(158.835, 227.593, 154.149, 1)" offset="100%"></stop></linearGradient></defs><path style="transform:translate(0, 0px); opacity:1" fill="url(#sw-gradient-0)" d="M0,49L48,106.2C96,163,192,278,288,285.8C384,294,480,196,576,171.5C672,147,768,196,864,236.8C960,278,1056,310,1152,318.5C1248,327,1344,310,1440,285.8C1536,261,1632,229,1728,196C1824,163,1920,131,2016,171.5C2112,212,2208,327,2304,375.7C2400,425,2496,408,2592,375.7C2688,343,2784,294,2880,245C2976,196,3072,147,3168,163.3C3264,180,3360,261,3456,285.8C3552,310,3648,278,3744,285.8C3840,294,3936,343,4032,351.2C4128,359,4224,327,4320,285.8C4416,245,4512,196,4608,212.3C4704,229,4800,310,4896,359.3C4992,408,5088,425,5184,383.8C5280,343,5376,245,5472,179.7C5568,114,5664,82,5760,98C5856,114,5952,180,6048,187.8C6144,196,6240,147,6336,163.3C6432,180,6528,261,6624,253.2C6720,245,6816,147,6864,98L6912,49L6912,490L6864,490C6816,490,6720,490,6624,490C6528,490,6432,490,6336,490C6240,490,6144,490,6048,490C5952,490,5856,490,5760,490C5664,490,5568,490,5472,490C5376,490,5280,490,5184,490C5088,490,4992,490,4896,490C4800,490,4704,490,4608,490C4512,490,4416,490,4320,490C4224,490,4128,490,4032,490C3936,490,3840,490,3744,490C3648,490,3552,490,3456,490C3360,490,3264,490,3168,490C3072,490,2976,490,2880,490C2784,490,2688,490,2592,490C2496,490,2400,490,2304,490C2208,490,2112,490,2016,490C1920,490,1824,490,1728,490C1632,490,1536,490,1440,490C1344,490,1248,490,1152,490C1056,490,960,490,864,490C768,490,672,490,576,490C480,490,384,490,288,490C192,490,96,490,48,490L0,490Z"></path></svg>