<svg id="visual" viewBox="0 0 900 600" width="900" height="600" xmlns="http://www.w3.org/2000/svg" xmlns:xlink="http://www.w3.org/1999/xlink" version="1.1"><rect x="0" y="0" width="900" height="600" fill="#121212"></rect><defs><linearGradient id="grad1_0" x1="33.3%" y1="0%" x2="100%" y2="100%"><stop offset="20%" stop-color="#121212" stop-opacity="1"></stop><stop offset="80%" stop-color="#121212" stop-opacity="1"></stop></linearGradient></defs><defs><linearGradient id="grad2_0" x1="0%" y1="0%" x2="66.7%" y2="100%"><stop offset="20%" stop-color="#121212" stop-opacity="1"></stop><stop offset="80%" stop-color="#121212" stop-opacity="1"></stop></linearGradient></defs><g transform="translate(900, 0)"><path d="M0 486.7C-46.6 441.6 -93.1 396.5 -157.7 380.6C-222.2 364.7 -304.8 378 -344.2 344.2C-383.6 310.3 -379.8 229.4 -396.3 164.2C-412.9 99 -449.8 49.5 -486.7 0L0 0Z" fill="#07b86d"></path></g><g transform="translate(0, 600)"><path d="M0 -486.7C46.6 -442.5 93.1 -398.2 158.4 -382.5C223.7 -366.8 307.8 -379.6 344.2 -344.2C380.6 -308.7 369.4 -225 385.3 -159.6C401.1 -94.2 443.9 -47.1 486.7 0L0 0Z" fill="#07b86d"></path></g></svg>