<?xml version="1.0" standalone="no"?>
<svg xmlns:xlink="http://www.w3.org/1999/xlink" id="wave" style="transform:rotate(0deg); transition: 0.3s" viewBox="0 0 1440 490" version="1.1" xmlns="http://www.w3.org/2000/svg"><defs><linearGradient id="sw-gradient-0" x1="0" x2="0" y1="1" y2="0"><stop stop-color="rgba(6.563, 174.772, 83.021, 1)" offset="0%"/><stop stop-color="rgba(39.779, 222.584, 110.486, 1)" offset="100%"/></linearGradient></defs><path style="transform:translate(0, 0px); opacity:1" fill="url(#sw-gradient-0)" d="M0,441L40,416.5C80,392,160,343,240,318.5C320,294,400,294,480,261.3C560,229,640,163,720,163.3C800,163,880,229,960,228.7C1040,229,1120,163,1200,171.5C1280,180,1360,261,1440,318.5C1520,376,1600,408,1680,351.2C1760,294,1840,147,1920,106.2C2000,65,2080,131,2160,187.8C2240,245,2320,294,2400,302.2C2480,310,2560,278,2640,294C2720,310,2800,376,2880,400.2C2960,425,3040,408,3120,383.8C3200,359,3280,327,3360,261.3C3440,196,3520,98,3600,122.5C3680,147,3760,294,3840,367.5C3920,441,4000,441,4080,367.5C4160,294,4240,147,4320,106.2C4400,65,4480,131,4560,147C4640,163,4720,131,4800,130.7C4880,131,4960,163,5040,204.2C5120,245,5200,294,5280,334.8C5360,376,5440,408,5520,400.2C5600,392,5680,343,5720,318.5L5760,294L5760,490L5720,490C5680,490,5600,490,5520,490C5440,490,5360,490,5280,490C5200,490,5120,490,5040,490C4960,490,4880,490,4800,490C4720,490,4640,490,4560,490C4480,490,4400,490,4320,490C4240,490,4160,490,4080,490C4000,490,3920,490,3840,490C3760,490,3680,490,3600,490C3520,490,3440,490,3360,490C3280,490,3200,490,3120,490C3040,490,2960,490,2880,490C2800,490,2720,490,2640,490C2560,490,2480,490,2400,490C2320,490,2240,490,2160,490C2080,490,2000,490,1920,490C1840,490,1760,490,1680,490C1600,490,1520,490,1440,490C1360,490,1280,490,1200,490C1120,490,1040,490,960,490C880,490,800,490,720,490C640,490,560,490,480,490C400,490,320,490,240,490C160,490,80,490,40,490L0,490Z"/><defs><linearGradient id="sw-gradient-1" x1="0" x2="0" y1="1" y2="0"><stop stop-color="rgba(131.299, 218.031, 150.153, 1)" offset="0%"/><stop stop-color="rgba(60.047, 172.495, 65.444, 1)" offset="100%"/></linearGradient></defs><path style="transform:translate(0, 50px); opacity:0.9" fill="url(#sw-gradient-1)" d="M0,294L40,285.8C80,278,160,261,240,212.3C320,163,400,82,480,114.3C560,147,640,294,720,343C800,392,880,343,960,343C1040,343,1120,392,1200,400.2C1280,408,1360,376,1440,334.8C1520,294,1600,245,1680,245C1760,245,1840,294,1920,285.8C2000,278,2080,212,2160,155.2C2240,98,2320,49,2400,89.8C2480,131,2560,261,2640,302.2C2720,343,2800,294,2880,302.2C2960,310,3040,376,3120,367.5C3200,359,3280,278,3360,253.2C3440,229,3520,261,3600,302.2C3680,343,3760,392,3840,343C3920,294,4000,147,4080,114.3C4160,82,4240,163,4320,187.8C4400,212,4480,180,4560,204.2C4640,229,4720,310,4800,302.2C4880,294,4960,196,5040,196C5120,196,5200,294,5280,343C5360,392,5440,392,5520,326.7C5600,261,5680,131,5720,65.3L5760,0L5760,490L5720,490C5680,490,5600,490,5520,490C5440,490,5360,490,5280,490C5200,490,5120,490,5040,490C4960,490,4880,490,4800,490C4720,490,4640,490,4560,490C4480,490,4400,490,4320,490C4240,490,4160,490,4080,490C4000,490,3920,490,3840,490C3760,490,3680,490,3600,490C3520,490,3440,490,3360,490C3280,490,3200,490,3120,490C3040,490,2960,490,2880,490C2800,490,2720,490,2640,490C2560,490,2480,490,2400,490C2320,490,2240,490,2160,490C2080,490,2000,490,1920,490C1840,490,1760,490,1680,490C1600,490,1520,490,1440,490C1360,490,1280,490,1200,490C1120,490,1040,490,960,490C880,490,800,490,720,490C640,490,560,490,480,490C400,490,320,490,240,490C160,490,80,490,40,490L0,490Z"/><defs><linearGradient id="sw-gradient-2" x1="0" x2="0" y1="1" y2="0"><stop stop-color="rgba(6.646, 136.066, 30.396, 1)" offset="0%"/><stop stop-color="rgba(40.53, 133.79, 51.325, 1)" offset="100%"/></linearGradient></defs><path style="transform:translate(0, 100px); opacity:0.8" fill="url(#sw-gradient-2)" d="M0,49L40,65.3C80,82,160,114,240,106.2C320,98,400,49,480,57.2C560,65,640,131,720,147C800,163,880,131,960,130.7C1040,131,1120,163,1200,204.2C1280,245,1360,294,1440,294C1520,294,1600,245,1680,245C1760,245,1840,294,1920,285.8C2000,278,2080,212,2160,204.2C2240,196,2320,245,2400,253.2C2480,261,2560,229,2640,245C2720,261,2800,327,2880,294C2960,261,3040,131,3120,73.5C3200,16,3280,33,3360,65.3C3440,98,3520,147,3600,171.5C3680,196,3760,196,3840,236.8C3920,278,4000,359,4080,367.5C4160,376,4240,310,4320,285.8C4400,261,4480,278,4560,310.3C4640,343,4720,392,4800,416.5C4880,441,4960,441,5040,392C5120,343,5200,245,5280,236.8C5360,229,5440,310,5520,326.7C5600,343,5680,294,5720,269.5L5760,245L5760,490L5720,490C5680,490,5600,490,5520,490C5440,490,5360,490,5280,490C5200,490,5120,490,5040,490C4960,490,4880,490,4800,490C4720,490,4640,490,4560,490C4480,490,4400,490,4320,490C4240,490,4160,490,4080,490C4000,490,3920,490,3840,490C3760,490,3680,490,3600,490C3520,490,3440,490,3360,490C3280,490,3200,490,3120,490C3040,490,2960,490,2880,490C2800,490,2720,490,2640,490C2560,490,2480,490,2400,490C2320,490,2240,490,2160,490C2080,490,2000,490,1920,490C1840,490,1760,490,1680,490C1600,490,1520,490,1440,490C1360,490,1280,490,1200,490C1120,490,1040,490,960,490C880,490,800,490,720,490C640,490,560,490,480,490C400,490,320,490,240,490C160,490,80,490,40,490L0,490Z"/><defs><linearGradient id="sw-gradient-3" x1="0" x2="0" y1="1" y2="0"><stop stop-color="rgba(73.754, 117.852, 65.647, 1)" offset="0%"/><stop stop-color="rgba(24.452, 245.352, 64.99, 1)" offset="100%"/></linearGradient></defs><path style="transform:translate(0, 150px); opacity:0.7" fill="url(#sw-gradient-3)" d="M0,441L40,416.5C80,392,160,343,240,269.5C320,196,400,98,480,57.2C560,16,640,33,720,81.7C800,131,880,212,960,212.3C1040,212,1120,131,1200,155.2C1280,180,1360,310,1440,351.2C1520,392,1600,343,1680,277.7C1760,212,1840,131,1920,155.2C2000,180,2080,310,2160,334.8C2240,359,2320,278,2400,253.2C2480,229,2560,261,2640,302.2C2720,343,2800,392,2880,367.5C2960,343,3040,245,3120,212.3C3200,180,3280,212,3360,253.2C3440,294,3520,343,3600,351.2C3680,359,3760,327,3840,334.8C3920,343,4000,392,4080,383.8C4160,376,4240,310,4320,236.8C4400,163,4480,82,4560,40.8C4640,0,4720,0,4800,8.2C4880,16,4960,33,5040,98C5120,163,5200,278,5280,310.3C5360,343,5440,294,5520,236.8C5600,180,5680,114,5720,81.7L5760,49L5760,490L5720,490C5680,490,5600,490,5520,490C5440,490,5360,490,5280,490C5200,490,5120,490,5040,490C4960,490,4880,490,4800,490C4720,490,4640,490,4560,490C4480,490,4400,490,4320,490C4240,490,4160,490,4080,490C4000,490,3920,490,3840,490C3760,490,3680,490,3600,490C3520,490,3440,490,3360,490C3280,490,3200,490,3120,490C3040,490,2960,490,2880,490C2800,490,2720,490,2640,490C2560,490,2480,490,2400,490C2320,490,2240,490,2160,490C2080,490,2000,490,1920,490C1840,490,1760,490,1680,490C1600,490,1520,490,1440,490C1360,490,1280,490,1200,490C1120,490,1040,490,960,490C880,490,800,490,720,490C640,490,560,490,480,490C400,490,320,490,240,490C160,490,80,490,40,490L0,490Z"/></svg>